<svg width="310" height="174" viewBox="0 0 310 174" fill="none" xmlns="http://www.w3.org/2000/svg">
<g clip-path="url(#clip0_245_76)">
<path d="M10.0953 1.61914H12.3574L7.45929 16.213H4.89808L0 1.61914H2.26209L6.16934 13.5883L10.0953 1.61914Z" fill="black"/>
<path d="M22.8265 1.61914H25.0886L20.1905 16.213H17.6293L12.7312 1.61914H14.9933L18.9005 13.5883L22.8265 1.61914Z" fill="black"/>
<path d="M34.5109 13.1788C34.3987 11.3918 33.7444 10.7031 31.7627 10.7031H28.7528V16.213H26.5842V1.61914H32.2862C35.3335 1.61914 36.9039 3.23861 36.9039 6.01219C36.9039 7.94811 36.0626 9.25113 34.38 9.73511C35.8382 9.99571 36.5113 10.9264 36.6421 12.8437L36.773 14.6307C36.8104 15.2823 36.9039 15.8221 37.0347 16.213H34.8287C34.7165 15.8779 34.6418 15.4498 34.6044 14.9286L34.5109 13.1788ZM31.9497 8.82299C33.6883 8.82299 34.7352 8.04118 34.7352 6.1611C34.7352 4.28103 33.6883 3.49922 31.9497 3.49922H28.7528V8.82299H31.9497Z" fill="black"/>
<path d="M41.3627 16.213H39.1941V1.61914H41.3627V16.213Z" fill="black"/>
<path d="M44.1294 4.95148V3.92768C45.0641 3.89045 45.3446 3.42509 45.3446 2.49436H44.2229V0H46.5224V2.62466C46.5224 4.00214 45.6998 4.85841 44.1294 4.95148Z" fill="black"/>
<path d="M56.8326 8.59967V8.84166H54.7762V8.58106C54.7762 7.81786 54.1406 7.18496 52.9254 7.18496C51.7102 7.18496 51.0559 7.81786 51.0559 8.56244C51.0559 9.69793 51.9906 9.71655 53.9349 10.1261C56.197 10.5356 57.2252 11.5035 57.2252 13.3092C57.2252 15.1148 55.6175 16.455 53.0936 16.455C50.5698 16.455 48.9434 15.1334 48.9434 13.3092V13.0113H50.9998V13.3092C50.9998 14.2585 51.8411 14.8169 53.0936 14.8169C54.3462 14.8169 55.1688 14.2399 55.1688 13.365C55.1688 12.1551 54.1966 12.0248 52.3085 11.6338C50.0464 11.2429 49.0181 10.3308 49.0181 8.59967C49.0181 6.86851 50.4577 5.54688 52.9254 5.54688C55.3931 5.54688 56.8326 6.77544 56.8326 8.59967Z" fill="black"/>
<path d="M66.5822 7.40834C66.9935 6.27284 68.0965 5.54688 69.5921 5.54688C72.172 5.54688 73.7797 7.25942 73.7797 11.001C73.7797 14.7425 72.172 16.455 69.5921 16.455C68.0965 16.455 66.9935 15.7291 66.5822 14.5936V20.755H64.5444V5.78886H66.5822V7.40834ZM71.7046 11.001C71.7046 8.69274 71.069 7.2408 69.1621 7.2408C67.2552 7.2408 66.5822 8.69274 66.5822 11.001C66.5822 13.3092 67.2178 14.7611 69.1621 14.7611C71.1064 14.7611 71.7046 13.3092 71.7046 11.001Z" fill="black"/>
<path d="M77.416 11.6338C77.4907 13.5884 78.2572 14.7425 80.0146 14.7425C81.3232 14.7425 82.1084 14.1096 82.258 13.0858H84.3705C84.034 15.1892 82.5197 16.455 80.0146 16.455C76.8738 16.455 75.3408 14.4819 75.3408 11.001C75.3408 7.52002 76.8738 5.54688 79.9772 5.54688C83.0805 5.54688 84.5948 7.53864 84.5948 11.001C84.5948 11.2243 84.5948 11.4291 84.5761 11.6338H77.416ZM77.4347 10.0702H82.501C82.3514 8.32045 81.6223 7.25942 79.9772 7.25942C78.332 7.25942 77.5842 8.32045 77.4347 10.0702Z" fill="black"/>
<path d="M89.2497 13.0485C89.2497 14.3515 89.7358 14.668 91.0444 14.668H92.0913V16.3061C91.7548 16.3619 91.1379 16.3619 90.6892 16.3619C88.2402 16.3619 87.1932 15.6546 87.1932 13.4208V7.48275H85.679V5.78882H87.1932V2.8291H89.2497V5.78882H92.0913V7.48275H89.2497V13.0485Z" fill="black"/>
<path d="M103.57 5.54688C106.15 5.54688 107.777 6.8499 108.038 9.21395H105.944C105.814 7.98539 104.972 7.2408 103.57 7.2408C101.645 7.2408 101.009 8.69274 101.009 11.001C101.009 13.3092 101.645 14.7611 103.57 14.7611C104.972 14.7611 105.814 14.0165 105.944 12.788H108.038C107.777 15.152 106.15 16.455 103.57 16.455C100.467 16.455 98.9338 14.4819 98.9338 11.001C98.9338 7.52002 100.467 5.54688 103.57 5.54688Z" fill="black"/>
<path d="M113.413 16.455C110.983 16.455 109.45 15.2637 109.45 13.1416C109.45 11.0196 110.983 9.82823 113.413 9.82823C114.853 9.82823 115.993 10.3122 116.367 11.1685V9.47456C116.367 8.05985 115.619 7.2408 114.105 7.2408C112.759 7.2408 112.067 7.81786 111.917 8.87889H109.842C109.992 6.81267 111.431 5.54688 114.105 5.54688C117.021 5.54688 118.442 7.09189 118.442 9.47456V14.7797C118.442 15.3009 118.535 15.8594 118.685 16.213H116.572C116.442 15.9338 116.367 15.5429 116.367 15.0962C116.03 15.9152 114.965 16.455 113.413 16.455ZM116.386 13.1416C116.386 12.062 115.544 11.4849 113.937 11.4849C112.329 11.4849 111.506 12.062 111.506 13.1416C111.506 14.2213 112.347 14.7983 113.937 14.7983C115.526 14.7983 116.386 14.2399 116.386 13.1416Z" fill="black"/>
<path d="M123.387 13.0485C123.387 14.3515 123.873 14.668 125.182 14.668H126.229V16.3061C125.892 16.3619 125.275 16.3619 124.826 16.3619C122.377 16.3619 121.33 15.6546 121.33 13.4208V7.48275H119.816V5.78882H121.33V2.8291H123.387V5.78882H126.229V7.48275H123.387V13.0485Z" fill="black"/>
<path d="M136.922 16.4646C134.492 16.4274 132.977 15.2082 133.015 13.0861C133.052 10.9826 134.604 9.80061 137.034 9.83784C138.474 9.85645 139.605 10.359 139.969 11.2246L139.997 9.5307C140.016 8.11599 139.287 7.28764 137.773 7.25972C136.427 7.2411 135.726 7.80885 135.557 8.86057L133.482 8.82334C133.669 6.75712 135.127 5.51925 137.801 5.55648C140.717 5.60302 142.119 7.16664 142.073 9.55862L141.988 14.8638C141.988 15.385 142.063 15.9434 142.213 16.2971L140.1 16.2599C139.979 15.9807 139.904 15.5898 139.913 15.143C139.558 15.9527 138.492 16.4833 136.941 16.4553L136.922 16.4646ZM139.951 13.1978C139.969 12.1181 139.137 11.5318 137.53 11.5038C135.941 11.4759 135.09 12.0437 135.071 13.1233C135.053 14.2216 135.885 14.7893 137.474 14.8172C139.081 14.8452 139.932 14.296 139.951 13.1978Z" fill="black"/>
<path d="M152.785 17.1065L150.719 16.939L151.242 10.5914C151.392 8.79512 150.728 7.93885 149.391 7.82716C147.905 7.70617 146.671 8.78581 146.494 10.9358L146.036 16.5574L144.007 16.3899L144.867 6.00293L146.896 6.17046L146.755 7.91093C147.335 6.74751 148.466 6.04947 150.046 6.17977C152.373 6.36591 153.551 7.95746 153.336 10.61L152.803 17.0972L152.785 17.1065Z" fill="black"/>
<path d="M163.712 3.92773L165.759 4.23488L163.572 18.6612L161.525 18.3541L161.768 16.7532C161.207 17.8142 160.01 18.3727 158.533 18.1493C155.982 17.7677 154.654 15.8318 155.215 12.1368C155.776 8.43247 157.627 6.98053 160.179 7.37144C161.656 7.59481 162.637 8.47901 162.861 9.66103L163.731 3.93704L163.712 3.92773ZM160.347 9.12121C158.421 8.83268 157.58 10.1729 157.234 12.4346C156.888 14.7149 157.3 16.232 159.225 16.5205C161.113 16.809 161.955 15.4781 162.3 13.1978C162.646 10.9361 162.235 9.40043 160.347 9.12121Z" fill="black"/>
<path d="M179.313 22.3372L177.303 21.816L178.901 15.6546C179.359 13.9048 178.855 12.9462 177.546 12.6111C176.097 12.2388 174.695 13.0858 174.153 15.1799L172.732 20.6433L170.76 20.1314L174.424 6.00293L176.396 6.51483L174.91 12.2481C175.686 11.1964 176.91 10.7031 178.453 11.1033C180.715 11.6897 181.612 13.4488 180.939 16.0269L179.303 22.3372H179.313Z" fill="black"/>
<path d="M184.342 19.1082C183.79 20.9883 184.155 22.3192 185.819 22.8777C187.062 23.2872 188.006 22.9335 188.473 22.0121L190.483 22.6729C189.492 24.5623 187.66 25.2883 185.277 24.4971C182.295 23.5106 181.463 21.1558 182.575 17.8517C183.669 14.5663 185.763 13.1608 188.707 14.1381C191.633 15.1061 192.455 17.4794 191.362 20.7649C191.287 20.979 191.222 21.1744 191.147 21.3606L184.351 19.1082H184.342ZM184.856 17.6284L189.661 19.2199C190.072 17.5167 189.717 16.2788 188.156 15.7576C186.557 15.2271 185.548 16.0089 184.847 17.6284H184.856Z" fill="black"/>
<path d="M195.166 22.1329L193.194 27.1029L191.296 26.3584L195.157 16.6602L197.054 17.4047L196.409 19.0335C197.316 17.9725 198.344 17.656 199.84 18.2424C200.139 18.3541 200.457 18.503 200.616 18.624L199.962 20.169C199.812 20.0946 199.503 19.9456 199.158 19.8153C197.522 19.1731 196.064 19.9177 195.176 22.1329H195.166Z" fill="black"/>
<path d="M208.505 24.1803C209.384 23.3519 210.683 23.1937 212.02 23.8638C214.319 25.0272 214.983 27.2796 213.282 30.6116C211.58 33.9436 209.374 34.7534 207.065 33.5993C205.729 32.9291 205.093 31.7936 205.243 30.593L204.504 32.0356L202.672 31.1142L209.29 18.084L211.122 19.0054L208.496 24.171L208.505 24.1803ZM207.467 31.8774C209.187 32.743 210.402 31.7471 211.449 29.6902C212.487 27.6426 212.58 26.0603 210.861 25.1948C209.141 24.3292 207.916 25.3437 206.878 27.382C205.832 29.4389 205.747 31.0118 207.467 31.8774Z" fill="black"/>
<path d="M216.235 33.0313C215.301 34.7532 215.366 36.1307 216.871 37.0242C217.993 37.6943 218.993 37.5454 219.647 36.7449L221.461 37.8246C220.096 39.4627 218.142 39.7791 215.983 38.504C213.282 36.9032 212.982 34.4274 214.768 31.4398C216.544 28.4614 218.89 27.5307 221.554 29.113C224.209 30.6859 224.499 33.1802 222.723 36.1493C222.61 36.3447 222.498 36.5216 222.377 36.6798L216.217 33.0313H216.235ZM217.058 31.7004L221.414 34.2785C222.18 32.6963 222.106 31.4119 220.685 30.5742C219.236 29.7179 218.086 30.2671 217.058 31.7004Z" fill="black"/>
<path d="M232.042 39.5281L231.902 39.7236L230.2 38.5695L230.35 38.3554C230.78 37.7225 230.621 36.8476 229.611 36.1589C228.593 35.4608 227.714 35.6284 227.284 36.2426C226.639 37.1827 227.405 37.7225 228.77 39.1558C230.406 40.766 230.705 42.1435 229.686 43.6326C228.677 45.1032 226.574 45.3266 224.489 43.9026C222.423 42.4971 221.816 40.4775 222.844 38.9697L223.012 38.7277L224.713 39.8818L224.545 40.1238C224.003 40.9056 224.386 41.8456 225.414 42.5437C226.433 43.2417 227.452 43.2324 227.948 42.5158C228.63 41.5199 227.91 40.8591 226.564 39.4816C224.919 37.89 224.583 36.5591 225.564 35.1258C226.574 33.6552 228.48 33.4132 230.518 34.8C232.537 36.1775 233.051 38.011 232.014 39.5188L232.042 39.5281Z" fill="black"/>
<path d="M233.341 46.0707C232.547 47.1038 232.743 47.6529 233.781 48.4441L234.613 49.077L233.612 50.38C233.313 50.2218 232.818 49.8495 232.463 49.5795C230.518 48.0997 230.107 46.9084 231.472 45.1307L235.08 40.4025L233.874 39.4904L234.902 38.1409L236.108 39.053L237.912 36.6982L239.548 37.9361L237.744 40.2909L240.006 42.0034L238.978 43.353L236.716 41.6404L233.332 46.0707H233.341Z" fill="black"/>
<path d="M251.223 48.0998C250.26 47.2435 249.718 47.2901 248.989 48.0998L248.232 48.9468L250.213 50.7058L249.082 51.9716L247.101 50.2126L241.259 56.7184L239.726 55.3502L245.568 48.8444L244.455 47.8485L245.586 46.5827L246.699 47.5786L247.521 46.6665C249.045 44.9725 250.326 45.0191 252.158 46.6479C252.476 46.9364 252.775 47.2156 253.046 47.56L251.971 48.7513L251.232 48.0905L251.223 48.0998Z" fill="black"/>
<path d="M249.419 57.0255L245.671 60.8415L244.212 59.4268L251.531 51.9717L252.99 53.3864L251.765 54.6336C253.008 54.0007 254.083 54.1031 255.233 55.2292C255.457 55.4526 255.7 55.7132 255.794 55.8807L254.588 57.0535C254.485 56.9232 254.252 56.6719 253.99 56.4113C252.737 55.192 251.092 55.313 249.428 57.0162L249.419 57.0255Z" fill="black"/>
<path d="M249.288 64.4533L256.869 57.2681L258.299 58.7666L250.718 65.9518L249.288 64.4533ZM258.299 55.8999L259.897 54.3828L261.328 55.8813L259.729 57.3984L258.299 55.8999Z" fill="black"/>
<path d="M256.85 65.8122C255.411 67.1524 255.037 68.4834 256.187 69.805C257.047 70.7916 258.037 70.9684 258.916 70.41L260.299 72.0015C258.486 73.1277 256.532 72.8113 254.887 70.9312C252.831 68.5671 253.326 66.1193 255.972 63.839C258.598 61.568 261.113 61.4191 263.15 63.7552C265.169 66.0728 264.665 68.5392 262.029 70.8009C261.86 70.9498 261.702 71.0801 261.533 71.2011L256.85 65.8122ZM258.047 64.807L261.365 68.623C262.599 67.3665 262.926 66.1193 261.851 64.8814C260.748 63.6156 259.477 63.7739 258.056 64.807H258.047Z" fill="black"/>
<path d="M264.459 82.5369L263.207 80.8895L268.31 77.0549C269.759 75.966 269.955 74.9049 269.152 73.8346C268.254 72.6433 266.618 72.4478 264.889 73.7508L260.365 77.148L259.14 75.5285L267.497 69.2461L268.722 70.8656L267.319 71.9173C268.581 71.5729 269.853 71.9452 270.806 73.211C272.217 75.0725 271.806 77.0084 269.675 78.6092L264.45 82.5369H264.459Z" fill="black"/>
<path d="M281.612 81.8759L282.743 83.607L270.46 91.5927L269.329 89.8615L270.694 88.9773C269.525 89.2752 268.31 88.7447 267.488 87.4975C266.076 85.3475 266.637 83.0672 269.787 81.0196C272.937 78.972 275.255 79.3815 276.667 81.5315C277.489 82.7787 277.48 84.1003 276.742 85.0404L281.612 81.8759ZM275.48 82.8438C274.414 81.2244 272.844 81.485 270.918 82.7415C268.974 84.0073 268.114 85.3196 269.179 86.9391C270.226 88.5306 271.778 88.2793 273.722 87.0135C275.648 85.757 276.527 84.4354 275.48 82.8438Z" fill="black"/>
<path d="M289.838 92.822L288.931 93.306C288.454 92.5056 287.912 92.4777 287.089 92.9244L287.622 93.911L285.416 95.093L284.323 93.0733L286.641 91.8262C287.856 91.1746 289.006 91.4911 289.828 92.822H289.838Z" fill="black"/>
<path d="M288.202 101.962C289.305 104.279 288.818 106.308 286.79 107.555L285.893 105.675C286.949 105.033 287.267 103.953 286.669 102.697C285.846 100.966 284.257 101.012 282.163 102.008C280.069 103.004 279.022 104.195 279.854 105.927C280.452 107.183 281.49 107.62 282.658 107.22L283.556 109.1C281.294 109.882 279.415 108.97 278.312 106.653C276.985 103.86 278.116 101.636 281.275 100.147C284.435 98.6576 286.884 99.1881 288.211 101.98L288.202 101.962Z" fill="black"/>
<path d="M284.313 120.185L283.546 118.267L289.492 115.922C291.174 115.261 291.66 114.293 291.165 113.046C290.613 111.659 289.099 111.036 287.08 111.827L281.808 113.902L281.06 112.013L294.689 106.643L295.436 108.532L289.903 110.71C291.211 110.71 292.333 111.417 292.922 112.888C293.782 115.056 292.875 116.815 290.389 117.793L284.304 120.185H284.313Z" fill="black"/>
<path d="M285.818 125.49C285.079 123.182 285.753 121.367 287.79 120.725C289.8 120.083 291.426 121.172 292.165 123.48C292.604 124.848 292.483 126.076 291.782 126.691L293.399 126.179C294.754 125.751 295.306 124.792 294.848 123.359C294.436 122.084 293.679 121.6 292.614 121.777L291.987 119.803C294.006 119.319 295.661 120.297 296.474 122.838C297.362 125.602 296.315 127.426 294.034 128.143L288.959 129.753C288.463 129.911 287.949 130.172 287.659 130.423L287.014 128.422C287.239 128.217 287.594 128.022 288.024 127.891C287.136 127.817 286.295 126.97 285.827 125.499L285.818 125.49ZM289.893 127.305C290.931 126.979 291.221 126.002 290.735 124.476C290.249 122.968 289.445 122.344 288.407 122.67C287.36 123.005 287.08 123.973 287.557 125.481C288.043 127.007 288.837 127.631 289.884 127.305H289.893Z" fill="black"/>
<path d="M295.54 130.079L297.119 136.25L295.362 136.697L293.782 130.526L295.54 130.079Z" fill="black"/>
<path d="M301.391 142.104C301.877 144.626 300.905 146.46 298.624 147.167L298.232 145.12C299.419 144.757 299.989 143.798 299.727 142.42C299.363 140.54 297.811 140.187 295.53 140.624C293.249 141.062 291.941 141.955 292.305 143.835C292.567 145.203 293.464 145.892 294.698 145.78L295.091 147.828C292.707 148.023 291.118 146.674 290.632 144.152C290.043 141.117 291.698 139.247 295.138 138.586C298.568 137.925 300.802 139.051 301.391 142.085V142.104Z" fill="black"/>
<path d="M293.044 158.801L292.791 156.754L299.138 155.972C300.942 155.749 301.643 154.93 301.484 153.599C301.298 152.119 299.989 151.142 297.839 151.402L292.221 152.091L291.969 150.08L306.513 148.284L306.766 150.295L300.868 151.021C302.129 151.356 303.046 152.305 303.242 153.878C303.532 156.186 302.204 157.666 299.55 157.992L293.053 158.792L293.044 158.801Z" fill="black"/>
<path d="M293.174 164.339C293.034 161.919 294.147 160.328 296.278 160.216C298.39 160.095 299.69 161.556 299.82 163.976C299.905 165.409 299.475 166.573 298.643 166.992L300.344 166.899C301.765 166.824 302.541 166.033 302.456 164.525C302.382 163.185 301.765 162.533 300.69 162.44L300.578 160.374C302.662 160.411 304.008 161.77 304.158 164.423C304.317 167.327 302.849 168.825 300.456 168.956L295.137 169.253C294.614 169.281 294.062 169.402 293.717 169.579L293.595 167.476C293.866 167.327 294.259 167.234 294.707 167.206C293.866 166.917 293.268 165.884 293.184 164.348L293.174 164.339ZM296.661 167.113C297.745 167.057 298.278 166.182 298.185 164.581C298.101 162.999 297.474 162.198 296.39 162.254C295.287 162.319 294.773 163.185 294.866 164.767C294.96 166.368 295.567 167.169 296.661 167.113Z" fill="black"/>
<path d="M305.008 171.636H306.037C306.083 172.558 306.551 172.837 307.485 172.828V171.711L309.981 171.692V173.982L307.355 174C305.971 174 305.102 173.191 304.999 171.627L305.008 171.636Z" fill="black"/>
</g>
<defs>
<clipPath id="clip0_245_76">
<rect width="310" height="174" fill="white"/>
</clipPath>
</defs>
</svg>
